<svg width="20" height="20" viewBox="0 0 20 20" fill="none" xmlns="http://www.w3.org/2000/svg">
<path d="M0 4C0 1.79086 1.79086 0 4 0H16C18.2091 0 20 1.79086 20 4V16C20 18.2091 18.2091 20 16 20H4C1.79086 20 0 18.2091 0 16V4Z" fill="#43B748"/>
<path fill-rule="evenodd" clip-rule="evenodd" d="M14.3178 5.92748C14.634 6.19503 14.6734 6.66827 14.4059 6.98447L8.90588 13.4845C8.76799 13.6474 8.56719 13.7439 8.3538 13.7497C8.14041 13.7556 7.93465 13.6702 7.78808 13.515L4.95474 10.515C4.67033 10.2138 4.6839 9.73916 4.98503 9.45476C5.28617 9.17035 5.76085 9.18391 6.04526 9.48505L8.30263 11.8752L13.2608 6.01556C13.5284 5.69935 14.0016 5.65992 14.3178 5.92748Z" fill="white"/>
</svg>
