<svg width="36" height="36" viewBox="0 0 36 36" fill="none" xmlns="http://www.w3.org/2000/svg">
<path d="M31.8004 30.0664L12.0607 35.3815C9.40729 36.1052 6.67946 34.5331 5.9603 31.8631L0.678217 12C-0.0409397 9.33001 1.54617 6.58512 4.19961 5.86147L23.9392 0.546365C26.5927 -0.177287 29.3205 1.41974 30.0397 4.08977L35.3217 23.9528C36.0161 26.6228 34.4538 29.3677 31.8004 30.0664Z" fill="#E1E4F4"/>
<path d="M32.4201 10.702L31.2298 11.8249C31.2298 11.8249 24.5838 7.65768 24.3606 7.50796C24.1374 7.38319 22.2775 10.5772 21.9303 10.7769L1.47156 22.6548L17.5162 25.6741L32.7425 17.4395C33.3128 17.0901 32.4201 10.702 32.4201 10.702Z" fill="#2B2E3A"/>
<path d="M19.8969 11.1765L18.8802 10.8272C18.657 10.7523 18.4338 10.6026 18.285 10.4279L17.913 9.97873C17.7146 9.7292 17.3179 9.75415 17.1443 10.0536L16.7971 10.6525C16.7227 10.7772 16.6731 10.927 16.6731 11.1016V12.5489L15.6068 13.9214L12.2094 15.8927C12.0854 15.9676 12.011 16.0923 12.011 16.2421V16.7162C12.011 16.8659 12.0854 16.9907 12.2094 17.0655L15.3588 18.8871C15.5076 18.987 15.706 18.987 15.8548 18.8871L19.4505 16.841C19.5497 16.791 19.5993 16.6912 19.5993 16.5665V16.2421L20.7401 12.8983C20.9632 12.1996 20.5913 11.426 19.8969 11.1765Z" fill="#57617F"/>
<path d="M24.9309 14.8948L23.9142 14.5454C23.691 14.4706 23.4678 14.3208 23.319 14.1462L22.9471 13.697C22.7487 13.4475 22.3519 13.4724 22.1783 13.7719L21.9551 14.1711C21.8063 14.4456 21.7071 14.745 21.7071 15.0445V16.7164C21.7071 16.891 21.6079 17.0657 21.4592 17.1655L20.6656 17.6397L17.2682 19.611C17.1442 19.6858 17.0698 19.8106 17.0698 19.9603V20.4344C17.0698 20.5842 17.1442 20.7089 17.2682 20.7838L20.4176 22.6054C20.5664 22.7052 20.7648 22.7052 20.9136 22.6054L24.5094 20.5592C24.6086 20.5093 24.6582 20.4095 24.6582 20.2847V19.9603L25.7989 16.6166C26.0221 15.8929 25.6501 15.1443 24.9309 14.8948Z" fill="#57617F"/>
<path d="M10.4983 11.875L9.82872 15.0191L12.3334 13.4471L12.4326 14.7946L14.5156 15.3685L13.0277 16.4415L13.8709 18.9618L7.02649 15.3685L8.19202 13.5718L10.4983 11.875Z" fill="#FFD385"/>
<path d="M17.1195 13.0229L15.6564 14.6699L17.7394 14.5701L17.6651 15.3686L19.0042 15.6181L19.3514 13.9961L17.1195 13.0229Z" fill="#FFD385"/>
<path d="M2.48841 19.7852C2.41402 19.9598 2.06684 19.7602 1.76925 20.9829C1.29808 21.4321 1.14929 22.1058 1.14929 22.4552V24.9256C1.14929 25.4496 1.32288 25.9237 1.67006 26.323C1.81885 26.4977 2.56281 26.0984 2.78599 26.2232C4.72028 27.3461 6.80335 28.3692 6.80335 28.3692C7.91929 29.018 8.51445 30.0161 9.80397 30.0161L10.1512 29.3424L11.8127 22.3055L2.48841 19.7852Z" fill="#F97A7A"/>
<path d="M31.2299 8.1821L23.6416 3.81523C22.8976 3.39102 21.9553 3.39102 21.2113 3.81523L14.3917 8.58135C14.0198 8.83089 13.5982 9.00556 13.1518 9.08042L11.7879 9.28005L11.3167 9.6294C11.0935 9.80408 10.8951 10.0287 10.7711 10.3031L10.2256 11.5009L7.79533 13.5721L7.02657 14.8197L3.10841 17.8641C2.88522 18.0387 3.1828 18.5877 3.05881 18.8123C2.86042 19.1367 2.31486 19.4112 2.31486 19.8104L2.26526 20.1847C2.26526 20.4343 3.1828 21.1579 3.48039 20.5591C3.67877 20.1598 6.25782 21.0831 6.6298 21.3077L7.74573 22.6302C8.39049 23.0045 7.32415 24.4518 8.06811 24.352L10.9943 24.1274C11.5399 24.0775 12.507 24.4269 12.9782 24.1524C14.8629 23.1293 17.194 20.7587 17.3428 20.8086L19.7234 14.3207C23.468 11.1266 27.4853 10.5277 31.2299 8.1821ZM18.7315 14.8447L16.8468 19.5859C16.7228 19.8853 16.45 20.0849 16.1276 20.0849L7.62174 15.1691C7.57214 14.9445 7.62174 14.695 7.79533 14.4953L8.1921 13.7717L10.4984 11.8752L11.1927 10.4529C11.3911 10.2283 11.7135 10.2033 11.9367 10.403C12.2591 10.7024 12.2839 11.476 12.879 11.9251C13.3006 12.2246 14.2677 12.1996 14.7389 12.4492C15.9292 13.1229 17.6155 13.8466 18.4587 14.1709C18.7067 14.2708 18.8307 14.5702 18.7315 14.8447Z" fill="#BFC6F2"/>
<path d="M33.065 9.52962C32.7426 9.08046 32.2962 8.75606 31.825 8.48157L31.2299 8.18213L30.0643 8.90578C33.1889 12.4741 28.1796 19.511 27.6093 19.8354L25.8734 20.7587C26.171 20.4343 26.3446 20.0351 26.3446 19.5859L26.4438 15.1442C26.4438 14.7948 26.419 14.4455 26.3446 14.0961L25.6254 10.8522C25.5262 10.4279 25.055 10.2034 24.6583 10.4279L21.1369 12.4741C20.3929 12.8983 19.8225 13.597 19.5498 14.3956L18.409 17.6894C18.3098 17.9639 18.2106 18.2384 18.0619 18.4879C17.9627 18.6876 17.8883 18.9122 17.8387 19.1367C17.2683 20.3345 16.3508 21.3077 15.21 21.9814L12.7302 23.4038C12.1102 23.7531 11.4159 24.0027 10.7215 24.0775C10.7215 24.0775 9.48157 24.5766 8.44003 25.5747L7.82007 27.8954C7.82007 29.0433 8.73761 29.9666 9.87835 29.9666L12.1102 28.7438C12.4574 28.2697 12.8294 26.0738 15.1356 25.6496L18.533 26.498L26.8157 21.682L31.7754 18.1885C32.6186 17.6894 33.7593 17.1404 33.9329 16.1673C33.9825 15.9676 34.0073 15.7431 34.0073 15.5434V12.2995C34.0073 11.3512 33.6849 10.3531 33.065 9.52962ZM19.4506 18.1136L20.3433 15.0444C20.6161 14.146 21.2113 13.3725 22.0296 12.8983L25.055 11.1266L25.6998 13.9713C25.799 14.4455 25.6006 14.9196 25.2038 15.1941L20.0209 18.5378C19.7234 18.7125 19.3514 18.438 19.4506 18.1136Z" fill="#8698BF"/>
<path d="M10.2502 17.5396C10.2502 17.5396 10.275 17.5396 10.275 17.5645C10.275 17.5396 10.2502 17.5396 10.2502 17.5396Z" fill="#B3B3B3"/>
<path d="M33.4369 15.4683C33.4369 15.4683 32.569 14.9692 32.5194 15.0191C32.4698 15.069 31.1058 15.3186 31.1058 15.3186L29.2212 16.9655L27.6093 21.3074L28.626 20.7335L29.8163 21.4072L33.3129 17.6892L33.3873 17.3398L33.5361 16.3417L33.4369 15.4683Z" fill="#2B2E3A"/>
<path d="M31.9242 16.3169C31.6762 16.3169 31.4282 16.3918 31.2298 16.5165C29.9651 17.2402 29.1219 18.6126 29.1219 20.1847C29.1219 20.9582 29.7419 21.607 30.5355 21.607C30.7834 21.607 31.0314 21.5322 31.2546 21.4074C32.4945 20.6838 33.3625 19.3113 33.3625 17.7392C33.3377 16.9657 32.6929 16.3169 31.9242 16.3169Z" fill="#57617F"/>
<path d="M31.6513 14.8448C30.6098 15.1692 29.7915 15.793 29.1467 16.5167C28.9235 16.7662 28.1052 17.964 27.9564 18.2884C27.6092 18.9621 27.386 19.586 27.2372 20.135C26.9644 21.0333 26.8652 21.732 26.8652 21.732L27.9564 21.1081C27.9564 21.1081 28.8987 16.2921 31.6513 15.4437C32.1721 15.294 32.3457 15.3189 32.6185 15.3938C32.8913 15.4936 33.2633 15.6683 33.3624 15.9428C33.5608 16.4668 33.4616 17.1655 33.3376 17.6645C33.66 17.2403 33.8584 16.7662 33.9576 16.2672C33.8832 15.8928 33.7592 15.5185 33.536 15.2191C33.3872 15.0195 32.1721 14.6701 31.6513 14.8448Z" fill="#BFC6F2"/>
<path d="M1.67006 22.2058L1.99244 22.0561C1.99244 21.1328 2.26523 20.3094 2.26523 20.3094L3.48035 19.2114L2.31482 19.7854C2.24043 19.96 2.09164 19.7604 1.76925 20.9831C1.29808 21.4323 1.14929 22.106 1.14929 22.4554V23.2789C1.14929 24.0275 1.14929 24.5016 1.14929 24.9008C1.14929 24.9008 1.39728 24.9507 1.39728 24.801C1.49647 23.8029 1.67006 22.2058 1.67006 22.2058Z" fill="#8698BF"/>
<path d="M9.20876 27.1715C9.08477 27.3961 9.77913 27.8952 9.77913 28.2695L8.19202 28.1946L9.08477 29.9414L6.85291 28.8933L7.77045 26.3481L11.1678 25.2002C11.1926 25.2002 9.33276 26.9469 9.20876 27.1715Z" fill="#F97A7A"/>
<path d="M11.8622 24.8259C10.9694 25.1752 9.35751 25.6743 7.79521 25.3998L6.65448 24.1771L3.62906 23.9276L1.99235 22.056C1.99235 22.056 1.89316 21.1827 1.99235 20.2095C1.99235 20.2095 1.298 22.4553 1.96756 22.9544C1.96756 23.4035 2.04195 23.9026 2.26514 24.0523C2.36433 24.1272 2.61232 24.2519 2.9595 24.4266L3.48027 25.2251L6.10891 26.0486C6.1585 26.0736 6.1833 26.0985 6.2329 26.1235C6.92726 26.4728 7.49762 26.7723 7.69601 26.897C7.944 27.0467 8.01839 26.8471 8.01839 26.5477C8.41517 26.5477 9.13433 26.5227 10.2007 26.3231C10.4238 26.2732 11.019 25.849 11.9862 25.0505C12.0606 24.9506 11.9614 24.8009 11.8622 24.8259Z" fill="#2B2E3A"/>
<path d="M1.89321 24.751L7.79525 28.1696C8.19203 29.1178 8.564 29.6668 8.564 29.6668C8.09283 29.8165 7.54727 29.1178 7.15049 28.9931C6.75371 28.8683 2.24038 27.0467 2.24038 27.0467C1.81881 26.7473 1.44683 26.1484 1.37244 25.8988C1.39724 25.5744 1.89321 24.751 1.89321 24.751Z" fill="#EF3F54"/>
<path d="M7.6464 15.3687C7.27442 15.8178 7.00164 16.3169 6.67926 16.791C6.38167 17.2651 6.05929 17.7642 5.73691 18.2383C5.38973 18.7124 5.04255 19.1865 4.64578 19.6108C4.59618 19.6607 4.54658 19.7106 4.49699 19.7605C4.44739 19.8104 4.39779 19.8603 4.3234 19.9352C4.19941 20.0599 3.97622 20.1348 3.80263 20.0849C3.62904 20.0599 3.50505 19.9352 3.40585 19.9102C3.38105 19.9102 3.38105 19.8852 3.38105 19.9102C3.35626 19.9352 3.35626 19.9601 3.35626 19.9851C3.33146 20.0599 3.33146 20.1348 3.33146 20.2096C3.30666 20.1348 3.28186 20.0599 3.28186 19.9851C3.28186 19.9352 3.28186 19.9102 3.30666 19.8603C3.33146 19.8104 3.40585 19.7605 3.45545 19.7605C3.62904 19.7854 3.75303 19.8353 3.87703 19.8353C3.97622 19.8353 4.05061 19.7854 4.12501 19.6856C4.14981 19.6357 4.19941 19.5858 4.2242 19.5109C4.249 19.461 4.2986 19.3862 4.3482 19.3363C4.64578 18.8621 4.96816 18.3631 5.29054 17.889C5.61292 17.4148 5.9601 16.9407 6.35688 16.5165C6.55526 16.2919 6.75365 16.0923 6.97684 15.8927C7.12563 15.693 7.34882 15.4934 7.6464 15.3687Z" fill="#8698BF"/>
<path d="M15.2844 20.1597C14.8876 20.4591 14.4661 20.7336 14.0197 20.9582C13.5733 21.1828 13.1269 21.3824 12.6558 21.5571C12.1846 21.7317 11.7134 21.8815 11.2423 22.0312L10.5479 22.2308C10.3247 22.3057 10.0767 22.3805 9.90313 22.4554L9.97753 22.3805C9.77914 22.68 9.55595 22.9545 9.33277 23.229L9.25837 23.3038L9.18398 23.2789C8.8368 23.204 8.51442 23.1291 8.16724 23.0293C8.51442 22.9794 8.8616 22.9794 9.20877 22.9794L9.05998 23.0543C9.20877 22.7299 9.38236 22.4304 9.55595 22.106L9.58075 22.0561L9.63035 22.0312C9.87833 21.8815 10.1015 21.8066 10.3495 21.7068C10.5727 21.607 10.8207 21.5321 11.0439 21.4573C11.515 21.3075 11.9862 21.1578 12.4326 21.033L13.8213 20.6088L15.2844 20.1597Z" fill="#8698BF"/>
<path d="M18.1114 26.8222L18.7065 25.4248L17.9874 23.7778H16.2515L14.9868 24.6762L13.5237 26.2233L12.7301 27.5708C12.7301 27.5708 13.2757 27.1965 13.8956 26.8471C15.8051 25.7991 18.1114 26.8222 18.1114 26.8222Z" fill="#2B2E3A"/>
<path d="M16.5492 26.0487C16.2764 25.899 15.9044 26.0237 15.6068 26.3232L14.0445 25.3999L13.4246 26.5228L15.0365 27.471C14.9869 27.8453 15.0613 28.1448 15.3092 28.2945L15.6068 28.4692L16.8468 26.2234C16.8468 26.2234 16.574 26.0736 16.5492 26.0487Z" fill="#57617F"/>
<path d="M16.8466 26.2232C16.4498 26.0236 15.8795 26.348 15.5571 26.9718C15.2347 27.5957 15.2099 28.2694 15.6067 28.4691C16.0035 28.6687 16.6482 28.3443 16.9706 27.7205C17.293 27.0966 17.2434 26.4229 16.8466 26.2232Z" fill="#8698BF"/>
<path d="M12.5813 27.7957C12.5813 27.7957 13.1021 27.3965 13.4492 26.5231C13.598 26.1488 13.8708 26.5231 14.1188 26.1238C14.6644 25.2255 15.4579 24.3771 16.5491 24.0527C19.3265 23.2043 18.0866 26.8225 18.0866 26.8225L18.9049 26.3484C18.9049 26.3484 19.4257 22.5305 16.5739 23.4289C15.0363 23.9279 14.1188 24.3771 13.4244 25.4002C13.3004 25.5749 13.1517 26.2736 13.1517 26.2736L11.7629 27.1469C11.7629 27.1469 11.9365 28.0203 11.8869 28.2199C11.7877 28.5443 12.0853 28.7939 12.0853 28.7939C12.5317 28.4695 12.4573 28.2199 12.5813 27.7957Z" fill="#BFC6F2"/>
</svg>
