<svg width="40" height="40" viewBox="0 0 40 40" fill="none" xmlns="http://www.w3.org/2000/svg">
<mask id="mask0_2603_1295" style="mask-type:alpha" maskUnits="userSpaceOnUse" x="0" y="0" width="40" height="40">
<rect width="40" height="40" fill="#C4C4C4"/>
</mask>
<g mask="url(#mask0_2603_1295)">
<path d="M33.7846 32L14.0308 37.2923C11.3846 38.0308 8.67693 36.4308 7.93846 33.7846L2.70769 14.0923C1.96923 11.4462 3.56923 8.73846 6.21539 8L25.9692 2.70769C28.6154 1.96923 31.3231 3.56923 32.0615 6.21539L37.3539 25.9692C38.0308 28.6154 36.4308 31.3231 33.7846 32Z" fill="#E1E4F4"/>
<path d="M23.3232 16.2461C23.3232 16.2461 22.0924 15.0769 22.154 14.3999C22.2155 13.723 22.4001 13.3538 22.7694 13.4153C23.1386 13.4769 23.5694 14.0307 23.6309 14.2769C23.6309 14.523 23.3847 15.0769 23.6309 15.3846C23.8155 15.6923 24.0617 16.2461 23.3232 16.2461Z" fill="#EF3F54"/>
<path d="M16.4924 22.3999C16.4309 22.5845 16.0616 22.3999 15.7539 23.6307C15.2616 24.123 15.1385 24.7999 15.1385 25.1691V27.7537C15.1385 28.3076 15.3232 28.7999 15.6924 29.2307C15.877 29.4153 16.6155 28.9845 16.8616 29.1076C18.8924 30.2768 21.1078 31.3845 21.1078 31.3845C22.277 32.0614 22.8924 33.1076 24.2462 33.1076H25.3539L26.4001 25.0461L16.4924 22.3999Z" fill="#57617F"/>
<path d="M15.631 24.9231L16.0002 24.7385C16.0002 23.7539 16.3079 22.9539 16.3079 22.9539L17.6002 21.7847L16.3694 22.4001C16.3079 22.5847 16.1233 22.4001 15.8156 23.6308C15.3233 24.1231 15.2002 24.8001 15.2002 25.1693V26.0308C15.2002 26.8308 15.2002 27.3231 15.2002 27.7539C15.2002 27.7539 15.4463 27.8154 15.4463 27.6308C15.4463 26.5847 15.631 24.9231 15.631 24.9231Z" fill="#8698BF"/>
<path d="M27.4461 11.0383C26.6461 11.4691 25.9692 12.0845 25.3538 12.7614L21.5999 17.0691C21.3538 17.3768 21.1076 17.6229 20.7999 17.8076L17.1692 20.6383C16.923 20.8229 17.2307 21.3768 17.1076 21.6229C16.923 21.9922 16.3076 22.2383 16.3076 22.6691L16.2461 23.0383C16.2461 23.2845 17.2307 24.0229 17.5384 23.4076C17.7846 22.9768 18.8922 25.6229 19.323 25.8076L22.0307 25.5614C22.7076 25.9306 21.5999 27.4691 22.3999 27.346L25.4769 27.0999C26.0307 27.0383 26.5846 26.8537 27.0769 26.546L30.8307 24.3922L32.9846 25.0691L36.0615 21.1922L32.5538 8.02294L27.4461 11.0383Z" fill="#BFC6F2"/>
<path d="M34.7077 16.3247L34.5846 16.3862L32.9231 21.1247C32.3692 22.7247 31.2615 24.017 29.8461 24.8786L27.2615 26.3555C26.5846 26.7247 25.9077 26.9709 25.1692 27.0324C25.1692 27.0324 23.8769 27.5862 22.7692 28.5709L22.0923 30.9709C22.0923 32.1401 23.0769 33.1247 24.2461 33.1247H25.3538C26.5231 33.1247 27.6307 32.817 28.6769 32.2632L37.4769 27.1555C37.4769 26.7862 37.4154 26.3555 37.2923 25.9862L34.7077 16.3247Z" fill="#8698BF"/>
<path d="M22.0922 16.8616L25.6615 12.677C25.8461 12.4309 26.2153 12.4309 26.4615 12.6155C27.0768 13.1078 28.1845 14.0924 29.4153 14.7693C30.6461 15.5078 32.4307 16.2463 33.2922 16.5539C33.5999 16.677 33.723 16.9847 33.5999 17.2924L31.6307 22.277C31.4461 22.7078 30.9538 22.8924 30.523 22.7693C29.1076 22.2155 26.2768 21.0463 24.6768 20.1232C23.4461 19.3847 22.5845 18.5847 22.0922 18.0309C21.7845 17.6616 21.7845 17.2309 22.0922 16.8616Z" fill="#FDFDFD"/>
<path d="M23.5694 30.0923C23.4464 30.3385 24.1848 30.8308 24.1848 31.2L22.5233 31.1385L23.4464 32.9846L21.1079 31.8769L22.0925 29.2308L25.6618 28C25.6618 28.0615 23.6925 29.8462 23.5694 30.0923Z" fill="#57617F"/>
<path d="M26.3386 27.6921C25.4156 28.0613 23.6925 28.6152 22.0925 28.3075L20.9233 27.0152L17.7233 26.769L16.0002 24.7383C16.0002 24.7383 15.8771 23.8152 16.0002 22.8306C16.0002 22.8306 15.2617 25.169 15.9386 25.6613C15.9386 26.1536 16.0002 26.646 16.2463 26.8306C16.3694 26.8921 16.6156 27.0152 16.9848 27.1998L17.5386 27.9998L20.3079 28.9229C20.3694 28.9229 20.3694 28.9844 20.431 28.9844C21.1694 29.3536 21.7848 29.6613 21.9694 29.7844C22.2156 29.9075 22.2771 29.7229 22.2771 29.4152C22.7079 29.4152 23.4463 29.4152 24.554 29.169C24.8002 29.1075 25.4156 28.6767 26.4002 27.8152C26.5848 27.7536 26.4617 27.6306 26.3386 27.6921Z" fill="#2B2E3A"/>
<path d="M33.354 29.5554L33.2925 27.2785L32.8002 26.6631H30.954L29.6002 27.5862C28.4309 28.3862 27.631 29.6785 27.631 31.2169L27.2617 32.3862L27.3848 32.8169C27.3848 32.8169 27.8156 32.6939 28.2463 32.4477L28.3079 32.5092L29.6002 33.1723L29.7848 32.5092C30.5848 32.0169 31.2617 31.34 31.6309 30.4785C32.554 29.9862 33.354 29.5554 33.354 29.5554Z" fill="#2B2E3A"/>
<path d="M27.3848 32.8001C27.3848 32.8001 28.4309 27.754 31.3233 26.8924C34.2156 26.0309 32.9233 29.7847 32.9233 29.7847L33.7848 29.2924C33.7848 29.2924 34.3386 25.2924 31.3233 26.277C27.4463 27.5078 26.2771 33.0463 26.2771 33.0463C26.6463 33.1693 27.0771 32.9847 27.3848 32.8001Z" fill="#BFC6F2"/>
<path d="M15.8768 27.5693L22.0922 31.1386C22.523 32.1232 22.8922 32.7386 22.8922 32.7386C22.3999 32.8616 21.8461 32.1847 21.4153 32.0616C20.9845 31.9386 16.2461 30.0309 16.2461 30.0309C15.8153 29.7232 15.4461 29.1078 15.323 28.8616C15.3845 28.4309 15.8768 27.5693 15.8768 27.5693Z" fill="#2B2E3A"/>
<path d="M21.9078 17.7847C21.5385 18.277 21.2308 18.7693 20.8616 19.2616C20.5539 19.7539 20.1847 20.2462 19.877 20.7385C19.5078 21.2308 19.1385 21.7231 18.7693 22.1539C18.6462 22.277 18.5847 22.3385 18.4001 22.5231C18.277 22.6462 18.0308 22.7077 17.8462 22.6462C17.6616 22.5847 17.5385 22.5231 17.4154 22.4616C17.4154 22.4616 17.3539 22.4616 17.3539 22.5231C17.3539 22.5847 17.3539 22.6462 17.2924 22.7693C17.2924 22.7077 17.2308 22.6462 17.2308 22.5231C17.2308 22.4616 17.2308 22.4616 17.2308 22.4001C17.2308 22.3385 17.3539 22.277 17.4154 22.277C17.6001 22.277 17.7231 22.3385 17.8462 22.3385C17.9693 22.3385 18.0308 22.277 18.0924 22.2154C18.1539 22.1539 18.277 21.9693 18.3385 21.8462C18.6462 21.3539 19.0155 20.8616 19.3231 20.3077C19.6924 19.8154 20.0616 19.3231 20.4308 18.8924C20.9231 18.5231 21.3539 18.0924 21.9078 17.7847Z" fill="#8698BF"/>
<path d="M29.9693 22.769C29.1693 23.3844 28.1847 23.8767 27.2001 24.246C26.7078 24.4306 26.2155 24.6152 25.7232 24.7383C25.2309 24.8614 24.677 24.9844 24.3078 25.169L24.3693 25.1075C24.1232 25.4152 23.9386 25.7229 23.6924 25.969L23.6309 26.0306H23.5693C23.2001 25.969 22.8309 25.9075 22.5232 25.7844C22.8924 25.7229 23.2617 25.7229 23.6309 25.7229L23.5078 25.7844C23.6924 25.4767 23.877 25.1075 24.0617 24.7998V24.7383L24.1232 24.6767C24.6155 24.369 25.1078 24.246 25.6001 24.0613C26.0924 23.8767 26.5847 23.7537 27.077 23.6306L29.9693 22.769Z" fill="#8698BF"/>
<path d="M34.0925 21.4154C33.9694 21.7847 34.4002 22.0308 34.7079 21.8462L36.0617 20.9847L35.1386 17.8462C35.0771 17.9693 35.0156 18.0923 35.0156 18.2154L34.0925 21.4154Z" fill="#F97A7A"/>
<path d="M24.0616 29.9694C24.0616 29.9694 24.3693 30.7078 24.9847 30.7694C25.6001 30.8309 25.7232 29.4771 25.7232 29.4771L24.0616 29.9694Z" fill="#57617F"/>
<path d="M16.1232 27.3847C15.3848 26.8308 14.7078 27.3232 14.5232 27.5693L13.8463 26.1539L13.9078 24.7385C13.7848 24.6155 14.2155 23.6308 14.0924 23.5078C13.7232 23.1385 13.6001 22.2155 13.6001 22.2155C12.8001 21.6001 11.9386 21.0462 10.954 20.3693C10.954 20.3693 9.10783 16.5539 8.12321 15.5078C7.1386 14.4616 4.00013 12.5539 2.58475 11.6924C2.46167 12.4924 2.46167 13.2924 2.70783 14.0924L7.32321 31.2616L16.8617 29.0462L16.1232 27.3847Z" fill="#FFD385"/>
<path d="M16.8002 30.5847V29.0463L15.6925 28.4924L16.1233 27.3847C15.8156 27.3232 15.7541 27.3232 15.7541 27.0155C15.3233 26.4617 14.5233 26.4001 14.4618 26.154C14.2772 25.5386 14.2772 23.754 14.0925 23.5078L13.0464 24.8617L13.9079 26.154C13.9079 26.154 13.8464 26.5232 10.7079 28.3078C9.78486 28.8617 8.24639 29.6001 7.01562 30.154L8.00024 33.7847C8.24639 34.7694 8.80024 35.5694 9.47716 36.1847L15.631 32.6155C16.3695 32.1847 16.8002 31.4463 16.8002 30.5847Z" fill="#FFB75E"/>
<path d="M9.16939 32.5541L12.6155 30.5849C12.8002 30.4618 13.1078 30.5849 13.1078 30.8311V32.8618C13.1078 33.0464 12.9848 33.2311 12.8002 33.3541L9.354 35.3234C9.16939 35.4464 8.86169 35.3234 8.86169 35.0772V33.0464C8.86169 32.8003 8.98477 32.6157 9.16939 32.5541Z" fill="#57617F"/>
<path d="M15.0771 30.4618C15.6309 29.6002 16.8002 29.0464 16.8002 29.0464V30.1541C16.8002 30.6464 16.554 31.0772 16.1233 31.3233L14.8925 32.0002C14.6463 32.1233 14.4002 31.9387 14.4617 31.631C14.6463 31.3233 14.8309 30.831 15.0771 30.4618Z" fill="#57617F"/>
<path d="M15.0771 30.4616C15.2002 30.2154 15.3848 30.0308 15.6309 29.8462L15.3233 30.6462L15.6309 31.077L16.2463 29.9077L16.3079 30.3385L16.8002 30.1539C16.8002 30.6462 16.554 31.077 16.1233 31.3231L14.8925 32C14.6463 32.1231 14.4002 31.9385 14.4617 31.6308C14.6463 31.3231 14.8309 30.8308 15.0771 30.4616Z" fill="#F97A7A"/>
<path d="M8.61554 17.108C8.30784 16.6157 7.69246 16.4926 7.20015 16.7388L3.87708 18.6465L5.23092 23.6311L10.4617 20.6773C9.96938 19.508 9.23092 18.0926 8.61554 17.108Z" fill="#F97A7A"/>
<path d="M14.7691 27.7541C14.8922 27.631 15.6307 27.6926 15.7538 26.9541L7.38452 31.6926L7.75375 32.9849L15.1384 28.7387L14.7691 27.7541Z" fill="#FFD385"/>
<path d="M15.3231 27.1387L15.7539 27.0156L16.1231 27.3849L15.8154 27.8772L13.3539 28.8002L14.4 27.5079L15.3231 27.1387Z" fill="#57617F"/>
<path d="M15.3849 28.0001L14.031 28.2463L14.6464 27.8155L14.4002 27.5078L7.01562 30.2155L7.20024 31.0155L13.231 28.8001L15.3849 28.0001Z" fill="#EF3F54"/>
<path d="M7.9386 29.9078L8.18475 30.7078L13.2309 28.8001L13.7232 27.7539L7.9386 29.9078Z" fill="#57617F"/>
<path d="M31.6924 27.8154C31.4462 27.8154 31.2001 27.877 30.9539 28C29.6616 28.7385 28.7385 30.2154 28.7385 31.8154C28.7385 32.6154 29.4154 33.2924 30.2154 33.2924C30.4616 33.2924 30.7693 33.2308 30.9539 33.1077C32.2462 32.3693 33.1693 30.8924 33.1693 29.2924C33.1693 28.4924 32.4924 27.8154 31.6924 27.8154Z" fill="#57617F"/>
<path d="M36.7385 21.2922C36.3693 21.1076 35.3846 20.6768 35.0154 20.7384C34.7693 20.7384 34.5231 21.0461 34.4 21.4153C34.2154 21.4768 33.9077 21.5999 33.9077 21.723C33.9077 21.9076 34.2769 22.0307 34.4616 22.0307C34.5231 22.1538 34.6462 22.2153 34.7693 22.2768C34.9539 22.3384 36.4308 22.5845 36.8 22.2153C37.2308 21.7845 37.1077 21.4768 36.7385 21.2922Z" fill="#EF3F54"/>
<path d="M9.72321 33.0464H13.6617C13.9078 33.0464 14.0309 33.2925 13.9078 33.5387L12.9232 35.2618C12.8001 35.4464 12.6155 35.5695 12.4309 35.5695H8.49244C8.24628 35.5695 8.1232 35.3233 8.24628 35.0772L9.2309 33.3541C9.35397 33.1695 9.53859 33.0464 9.72321 33.0464Z" fill="#FDFDFD"/>
</g>
</svg>
